# xmcd
#
# Track frame offsets: 
#        150
#        19823
#        38569
#        55383
#        74542
#        92354
#        128137
#        141391
#        150901
#        162853
#        173838
#        189226
#        206764
#
# Disc length: 2952 seconds
#
# Revision: 0
# Processed by: cddbd v1.5.2PL0 Copyright (c) Steve Scherf et al.
# Submitted via: ExactAudioCopy v0.95b4
#
DISCID=a90b860d
DTITLE=Janis Joplin - Janis Joplin
DYEAR=2002
DGENRE=Blues
TTITLE0=Turtle Blues
TTITLE1=One Good Man
TTITLE2=Maybe
TTITLE3=Oh, Sweet Mary
TTITLE4=Cry Baby
TTITLE5=Ball And Chain
TTITLE6=Trouble In Mind
TTITLE7=Down On Me
TTITLE8=Bye, Bye Baby
TTITLE9=Raise Your Hand
TTITLE10=Get It White
TTITLE11=Half Moon
TTITLE12=Trust Me
EXTD=
EXTT0=
EXTT1=
EXTT2=
EXTT3=
EXTT4=
EXTT5=
EXTT6=
EXTT7=
EXTT8=
EXTT9=
EXTT10=
EXTT11=
EXTT12=
PLAYORDER=
